<svg xmlns="http://www.w3.org/2000/svg" width="338" height="105" fill="none"><path fill="#ddd" d="M300.754 84.55c-3.071 0-5.912-.424-8.526-1.273-2.613-.784-4.703-1.731-6.271-2.842l.294 3.234h-5.193l-.49-16.855h4.115c.131 2.418.882 4.606 2.254 6.566a14.422 14.422 0 0 0 5.291 4.605c2.222 1.11 4.606 1.666 7.154 1.666 1.502 0 2.972-.228 4.409-.686 1.438-.522 2.646-1.274 3.626-2.254.98-1.045 1.47-2.319 1.47-3.821 0-1.633-.523-2.973-1.568-4.018-.98-1.11-2.352-2.09-4.116-2.94-1.698-.849-3.658-1.698-5.879-2.547-1.96-.784-3.952-1.6-5.977-2.45a31.89 31.89 0 0 1-5.488-3.038c-1.698-1.176-3.038-2.613-4.018-4.311-.979-1.764-1.469-3.92-1.469-6.468 0-1.502.294-3.103.882-4.801.587-1.764 1.535-3.365 2.841-4.802 1.307-1.502 3.071-2.71 5.292-3.626 2.221-.98 4.965-1.47 8.231-1.47 1.764 0 3.724.295 5.879.883 2.221.587 4.279 1.6 6.174 3.037l-.098-3.43h5.193v17.247h-4.213c-.196-2.286-.817-4.41-1.862-6.37a12.442 12.442 0 0 0-4.214-4.801c-1.829-1.241-4.05-1.862-6.663-1.862-2.548 0-4.638.654-6.271 1.96-1.568 1.241-2.352 2.81-2.352 4.704 0 1.894.588 3.43 1.764 4.605 1.241 1.176 2.841 2.189 4.801 3.038 1.96.85 4.083 1.698 6.37 2.548a77.165 77.165 0 0 1 7.741 3.625c2.417 1.307 4.377 2.94 5.879 4.9 1.503 1.96 2.254 4.442 2.254 7.447 0 3.266-.849 6.01-2.548 8.231-1.633 2.156-3.756 3.757-6.369 4.802-2.613 1.045-5.39 1.568-8.329 1.568ZM241.321 84.55c-3.658 0-6.696-.685-9.113-2.057-2.352-1.372-4.116-3.626-5.292-6.761-1.176-3.201-1.764-7.415-1.764-12.641V44.276a32.55 32.55 0 0 1 .392-3.625c-1.11.065-2.286.13-3.527.196-1.242 0-2.352.033-3.332.098V35.75h2.352c3.266 0 5.716-.293 7.349-.881 1.633-.588 2.776-1.209 3.43-1.862h3.723v29.887c0 5.16.719 9.015 2.156 11.563 1.437 2.547 3.854 3.789 7.251 3.723 2.222 0 4.345-.653 6.37-1.96 2.09-1.306 3.789-2.841 5.095-4.605V48.392c0-1.437.033-2.776.098-4.017.066-1.307.196-2.548.392-3.724-1.176.065-2.384.13-3.625.196a55.27 55.27 0 0 0-3.43.098V35.75h2.842c2.874 0 5.128-.293 6.761-.881 1.633-.588 2.809-1.209 3.528-1.862h3.723l-.098 36.06c0 1.045-.032 2.483-.098 4.312a81.666 81.666 0 0 1-.294 4.703c1.111-.065 2.254-.13 3.43-.196a65.548 65.548 0 0 1 3.43-.098v5.194h-15.581c-.13-1.045-.261-2.025-.392-2.94a32.45 32.45 0 0 0-.294-2.646c-2.025 1.895-4.377 3.56-7.055 4.998-2.678 1.437-5.487 2.156-8.427 2.156ZM191.748 78.867c1.959 0 3.331-.457 4.115-1.372.784-.914 1.241-2.188 1.372-3.821.196-1.633.294-3.528.294-5.684V47.706c0-1.11.033-2.22.098-3.331.065-1.176.163-2.417.294-3.724-1.111.065-2.286.13-3.528.196a55.26 55.26 0 0 0-3.429.098V35.75c2.939 0 5.258-.13 6.957-.392 1.764-.326 3.103-.686 4.018-1.077.98-.392 1.698-.817 2.155-1.274h3.724v37.824a69.37 69.37 0 0 1-.098 3.626 72.889 72.889 0 0 1-.294 3.625 50.287 50.287 0 0 1 3.136-.098c1.11-.065 2.123-.13 3.037-.196v5.194h-21.851v-4.116Zm10.485-54.874c-1.699 0-3.136-.621-4.312-1.862-1.176-1.307-1.764-2.875-1.764-4.704 0-1.829.621-3.364 1.862-4.605 1.241-1.307 2.646-1.96 4.214-1.96 1.698 0 3.103.653 4.213 1.96 1.176 1.24 1.764 2.776 1.764 4.605 0 1.83-.588 3.397-1.764 4.704-1.11 1.24-2.515 1.862-4.213 1.862ZM153.563 84.55c-3.985 0-7.546-.98-10.681-2.939-3.071-2.025-5.52-4.9-7.35-8.623-1.763-3.724-2.645-8.1-2.645-13.13 0-5.358 1.045-10.094 3.135-14.21 2.091-4.115 5.031-7.349 8.819-9.7 3.789-2.352 8.101-3.528 12.935-3.528 2.025 0 3.953.261 5.782.784 1.894.457 3.462 1.012 4.703 1.666V23.699c0-.98.033-2.058.098-3.234.066-1.241.164-2.515.294-3.822-1.176.066-2.384.13-3.625.196a64.012 64.012 0 0 1-3.332.098v-5.193c2.94 0 5.259-.13 6.957-.392 1.764-.327 3.103-.686 4.018-1.078.98-.392 1.698-.817 2.156-1.274h3.625v61.832c0 .98-.032 2.09-.098 3.332a91.836 91.836 0 0 1-.294 3.92l3.528-.197a58.6 58.6 0 0 1 3.234-.098v5.194h-15.581a111.29 111.29 0 0 0-.392-2.548l-.196-2.352c-1.96 2.09-4.213 3.691-6.761 4.802-2.548 1.11-5.324 1.666-8.329 1.666Zm4.017-6.173c2.025 0 3.985-.555 5.88-1.665 1.96-1.111 3.56-2.516 4.801-4.214V40.259c-1.241-.915-2.711-1.6-4.409-2.058a16.623 16.623 0 0 0-5.096-.784c-3.201 0-5.912.947-8.133 2.842-2.156 1.83-3.756 4.344-4.802 7.545-1.045 3.201-1.535 6.86-1.469 10.975.13 3.528.685 6.794 1.665 9.8.98 3.004 2.417 5.389 4.312 7.153 1.96 1.763 4.377 2.645 7.251 2.645ZM111.372 82.983a70.54 70.54 0 0 1-.294-2.744c-.065-.784-.163-1.6-.294-2.45-2.221 2.221-4.605 3.92-7.153 5.096a19.663 19.663 0 0 1-7.937 1.666c-4.704 0-8.264-1.144-10.681-3.43-2.352-2.352-3.528-5.259-3.528-8.721 0-3.005.882-5.618 2.646-7.84 1.764-2.22 4.083-4.017 6.957-5.389 2.875-1.437 6.01-2.482 9.407-3.136 3.397-.718 6.729-1.077 9.995-1.077v-5.782c0-2.09-.196-4.018-.587-5.781-.392-1.83-1.209-3.3-2.45-4.41-1.176-1.176-3.038-1.764-5.586-1.764-1.698-.065-3.397.262-5.095.98-1.699.653-3.005 1.764-3.92 3.332a3.45 3.45 0 0 1 .98 1.862c.196.653.294 1.273.294 1.861 0 .915-.392 1.96-1.176 3.136-.784 1.11-2.123 1.633-4.017 1.568-1.568 0-2.777-.523-3.626-1.568-.784-1.11-1.176-2.384-1.176-3.822 0-2.351.85-4.442 2.548-6.27 1.764-1.83 4.148-3.267 7.153-4.313 3.005-1.045 6.369-1.567 10.093-1.567 5.618 0 9.799 1.47 12.543 4.41 2.809 2.939 4.213 7.577 4.213 13.914v6.761c0 2.156-.032 4.312-.098 6.468v6.859c0 .98-.032 2.09-.098 3.332a93.45 93.45 0 0 1-.293 3.92c1.11-.066 2.253-.131 3.429-.197a60.262 60.262 0 0 1 3.332-.098v5.194h-15.581Zm-.882-23.518c-2.09.13-4.246.425-6.467.882-2.156.457-4.115 1.143-5.88 2.058-1.763.914-3.2 2.09-4.31 3.527-1.046 1.438-1.569 3.169-1.569 5.194.13 2.221.85 3.854 2.156 4.9 1.372 1.045 2.972 1.567 4.802 1.567 2.286 0 4.311-.424 6.075-1.274 1.764-.914 3.495-2.155 5.193-3.723a23.92 23.92 0 0 1-.098-2.156v-5.683c.066-1.634.098-3.397.098-5.292ZM20 82.983V78.67c2.156-.13 3.691-.588 4.606-1.372.98-.783 1.6-1.96 1.861-3.527.262-1.568.392-3.56.392-5.978V27.03c0-1.437.033-2.809.098-4.115.066-1.372.131-2.548.196-3.528-1.11.065-2.319.13-3.625.196-1.307.065-2.483.13-3.528.196v-5.39c3.985-.065 8.003-.098 12.053-.098 4.05-.065 8.133-.065 12.249 0 6.14 0 11.203.72 15.188 2.156 3.985 1.372 6.958 3.43 8.917 6.174 2.026 2.744 3.005 6.206 2.94 10.387.065 2.613-.457 5.226-1.568 7.839-1.11 2.548-2.972 4.834-5.585 6.86-2.613 2.024-6.206 3.56-10.78 4.605 1.307.784 2.483 1.862 3.528 3.234a78.451 78.451 0 0 1 3.234 4.605l5.978 9.211c1.24 1.96 2.384 3.626 3.43 4.998 1.044 1.372 2.22 2.45 3.527 3.234 1.306.718 2.874 1.077 4.703 1.077v4.312h-13.62c-1.699-1.437-3.169-2.972-4.41-4.606a278.153 278.153 0 0 1-3.822-5.683l-6.76-10.975-2.744-4.214c-.915-1.502-1.928-2.776-3.038-3.821H37.246v16.168c0 1.764-.032 3.364-.098 4.802 0 1.372-.065 2.482-.196 3.331.784-.065 1.6-.098 2.45-.098.915-.065 1.797-.13 2.646-.196a33.735 33.735 0 0 1 2.352-.097v5.389H20Zm22.93-34.1c3.593-.066 6.663-.621 9.21-1.667 2.549-1.11 4.508-2.776 5.88-4.997 1.372-2.287 2.058-5.226 2.058-8.82 0-2.678-.392-4.931-1.176-6.76-.784-1.83-1.894-3.3-3.331-4.41-1.438-1.176-3.169-1.993-5.194-2.45-1.96-.523-4.083-.784-6.37-.784-2.09 0-3.625.392-4.605 1.176-.914.784-1.502 1.927-1.764 3.43-.261 1.502-.392 3.43-.392 5.781v19.206c.98.066 1.895.164 2.744.294.915.066 1.895.066 2.94 0Z"/></svg>